<svg width="354" height="145.33"  xmlns="http://www.w3.org/2000/svg" viewBox="0 0 354 145.53">
  <path className="cls-1" fill="#000" d="M609.15,142.46l-139,62.22-1.17-2h0c-.91-1.62-1.82-3.2-2.74-4.77l-.3-.51h0c-10.47-17.68-22-31.86-34-40.8-14.78,12-27.24,27.2-37.7,45.4h0l-1.2,1.68L255.18,142.46c-.43,24.85,11.69,42.67,34.92,54.27l.34-5.88,141.61,66.43,141.78-66.1V197C596.33,187,609.72,169.53,609.15,142.46ZM432,233.64c-.05-.23-.11-.46-.16-.7,0,.14.11.27.16.41.08-.23.16-.45.25-.67C432.17,233,432.09,233.32,432,233.64Z" transform="translate(-255.17 -142.46)" />
  <path className="cls-1" fill="#000" d="M445.08,254.17v-19.3H418.45v19L292.94,195c.65,27.32,14.84,45.67,41.71,55.65l75,33,8.8-4.46L432,288l13.1-9.19,8.94,4.62,75.71-33.36c26.68-9.92,40.19-28.17,41-54.43Z" transform="translate(-255.17 -142.46)" />
</svg>